<?xml version="1.0" encoding="utf-8"?>
<!-- Generator: Adobe Illustrator 16.0.0, SVG Export Plug-In . SVG Version: 6.00 Build 0)  -->
<!DOCTYPE svg PUBLIC "-//W3C//DTD SVG 1.1//EN" "http://www.w3.org/Graphics/SVG/1.1/DTD/svg11.dtd">
<svg version="1.1" id="Layer_1" xmlns="http://www.w3.org/2000/svg" xmlns:xlink="http://www.w3.org/1999/xlink" x="0px" y="0px"
	 width="300px" height="300px" viewBox="0 0 300 300" enable-background="new 0 0 300 300" xml:space="preserve">
<g>
	<path fill="#231F20" d="M10.929,148.136v5.642H8.011v-14.436h2.918v5.136c0.882-0.895,1.871-1.342,2.967-1.342
		c1.096,0,2.02,0.389,2.772,1.167c0.752,0.778,1.128,1.816,1.128,3.113v6.361h-2.918v-5.72c0-1.608-0.59-2.412-1.771-2.412
		c-0.583,0-1.093,0.211-1.527,0.632C11.146,146.699,10.929,147.318,10.929,148.136z"/>
	<path fill="#231F20" d="M29.509,152.26c-1.18,1.115-2.565,1.673-4.154,1.673s-2.902-0.489-3.939-1.469
		c-1.038-0.979-1.556-2.292-1.556-3.939c0-1.646,0.528-2.957,1.585-3.93c1.057-0.973,2.305-1.459,3.745-1.459
		c1.439,0,2.662,0.435,3.667,1.303c1.005,0.87,1.508,2.062,1.508,3.58v1.557h-7.626c0.091,0.57,0.389,1.038,0.895,1.4
		c0.506,0.363,1.077,0.545,1.712,0.545c1.024,0,1.868-0.344,2.529-1.031L29.509,152.26z M26.707,146.054
		c-0.402-0.337-0.892-0.506-1.469-0.506s-1.106,0.175-1.585,0.525c-0.48,0.351-0.759,0.824-0.836,1.42h4.591
		C27.343,146.871,27.109,146.392,26.707,146.054z"/>
	<path fill="#231F20" d="M35.384,153.777h-2.918v-14.436h2.918V153.777z"/>
	<path fill="#231F20" d="M44.236,143.136c1.219,0,2.305,0.509,3.259,1.527c0.953,1.018,1.43,2.299,1.43,3.842
		c0,1.544-0.477,2.834-1.43,3.872c-0.954,1.037-2.069,1.556-3.346,1.556c-1.278,0-2.306-0.512-3.084-1.536v5.155h-2.918v-14.241
		h2.918v1.167C41.959,143.583,43.017,143.136,44.236,143.136z M41.026,148.554c0,0.85,0.236,1.544,0.71,2.082
		c0.473,0.538,1.047,0.807,1.722,0.807s1.265-0.269,1.771-0.807s0.759-1.229,0.759-2.072s-0.247-1.55-0.739-2.12
		c-0.493-0.571-1.083-0.856-1.771-0.856s-1.268,0.282-1.741,0.847C41.262,146.997,41.026,147.704,41.026,148.554z"/>
	<path fill="#231F20" d="M51.346,141.978c-0.331-0.331-0.496-0.736-0.496-1.216s0.166-0.885,0.496-1.216
		c0.331-0.331,0.736-0.496,1.216-0.496s0.885,0.165,1.216,0.496c0.331,0.331,0.496,0.736,0.496,1.216s-0.165,0.885-0.496,1.216
		c-0.331,0.331-0.736,0.496-1.216,0.496S51.677,142.309,51.346,141.978z M54.021,153.777h-2.918v-10.467h2.918V153.777z"/>
	<path fill="#231F20" d="M59.702,147.94v5.837h-2.918v-10.467h2.918v1.167c0.882-0.895,1.874-1.342,2.977-1.342
		s2.026,0.389,2.772,1.167c0.746,0.778,1.119,1.816,1.119,3.113v6.361h-2.918v-5.914c0-1.608-0.59-2.412-1.771-2.412
		c-0.583,0-1.093,0.211-1.527,0.632C59.919,146.505,59.702,147.124,59.702,147.94z"/>
	<path fill="#231F20" d="M76.958,152.007c-0.921,1.024-2.066,1.537-3.434,1.537c-1.369,0-2.522-0.464-3.463-1.391
		c-0.94-0.928-1.411-2.166-1.411-3.717c0-1.549,0.483-2.82,1.45-3.812c0.966-0.992,2.072-1.488,3.317-1.488s2.276,0.512,3.093,1.537
		v-1.381h2.918v9.124c0,0.935-0.163,1.765-0.486,2.49c-0.325,0.727-0.759,1.297-1.304,1.713c-1.077,0.855-2.348,1.283-3.813,1.283
		c-0.778,0-1.573-0.126-2.383-0.379s-1.521-0.613-2.13-1.08l1.128-2.198c0.959,0.727,1.975,1.09,3.045,1.09
		c1.07,0,1.916-0.267,2.539-0.798C76.646,154.004,76.958,153.161,76.958,152.007z M76.549,148.32c0-0.837-0.233-1.495-0.701-1.975
		c-0.467-0.479-1.044-0.72-1.731-0.72s-1.281,0.24-1.78,0.72c-0.5,0.479-0.749,1.135-0.749,1.965s0.243,1.501,0.729,2.014
		s1.08,0.769,1.78,0.769c0.7,0,1.284-0.253,1.75-0.759C76.316,149.828,76.549,149.157,76.549,148.32z"/>
	<path fill="#231F20" d="M89.136,157.901c-1.024,0-1.991-0.415-2.898-1.245l1.323-2.159c0.493,0.479,0.999,0.72,1.518,0.72
		c0.272,0,0.506-0.133,0.7-0.398c0.195-0.267,0.292-0.548,0.292-0.847c0-0.298-1.349-3.852-4.047-10.661h3.113l2.549,6.518
		l2.548-6.518h3.113l-4.864,12.334c-0.285,0.714-0.729,1.269-1.333,1.664S89.875,157.901,89.136,157.901z"/>
	<path fill="#231F20" d="M109.02,148.544c0,1.518-0.525,2.795-1.576,3.833c-1.05,1.037-2.37,1.556-3.959,1.556
		s-2.908-0.519-3.959-1.556c-1.05-1.038-1.576-2.315-1.576-3.833s0.525-2.798,1.576-3.842c1.051-1.044,2.37-1.566,3.959-1.566
		s2.909,0.522,3.959,1.566C108.494,145.746,109.02,147.026,109.02,148.544z M100.887,148.544c0,0.856,0.243,1.554,0.729,2.092
		s1.109,0.807,1.868,0.807s1.381-0.269,1.868-0.807s0.729-1.235,0.729-2.092c0-0.855-0.243-1.557-0.729-2.101
		c-0.486-0.545-1.109-0.817-1.868-0.817s-1.381,0.272-1.868,0.817C101.13,146.987,100.887,147.688,100.887,148.544z"/>
	<path fill="#231F20" d="M117.93,148.952v-5.642h2.938v10.467h-2.938v-1.381c-0.727,1.024-1.664,1.536-2.812,1.536
		s-2.111-0.359-2.889-1.079c-0.778-0.72-1.167-1.787-1.167-3.2v-6.343H114v5.7c0,1.608,0.59,2.412,1.771,2.412
		c0.583,0,1.089-0.21,1.518-0.632C117.715,150.37,117.93,149.757,117.93,148.952z"/>
	<path fill="#231F20" d="M133.785,151.346c0.973,0,1.849-0.486,2.626-1.459l1.731,1.945c-1.349,1.4-2.808,2.101-4.377,2.101
		c-1.57,0-2.896-0.496-3.979-1.488c-1.083-0.992-1.625-2.289-1.625-3.891s0.548-2.905,1.644-3.91c1.096-1.005,2.396-1.508,3.9-1.508
		c0.752,0,1.514,0.155,2.286,0.467c0.771,0.311,1.449,0.772,2.033,1.381l-1.517,1.984c-0.337-0.401-0.749-0.713-1.236-0.934
		c-0.486-0.221-0.969-0.331-1.449-0.331c-0.765,0-1.423,0.25-1.975,0.749c-0.551,0.5-0.827,1.194-0.827,2.082
		c0,0.889,0.275,1.579,0.827,2.072S133.045,151.346,133.785,151.346z"/>
	<path fill="#231F20" d="M150.38,148.544c0,1.518-0.525,2.795-1.576,3.833c-1.05,1.037-2.37,1.556-3.959,1.556
		s-2.908-0.519-3.959-1.556c-1.05-1.038-1.576-2.315-1.576-3.833s0.525-2.798,1.576-3.842c1.051-1.044,2.37-1.566,3.959-1.566
		s2.909,0.522,3.959,1.566C149.854,145.746,150.38,147.026,150.38,148.544z M142.248,148.544c0,0.856,0.243,1.554,0.729,2.092
		s1.109,0.807,1.868,0.807s1.381-0.269,1.868-0.807s0.729-1.235,0.729-2.092c0-0.855-0.243-1.557-0.729-2.101
		c-0.486-0.545-1.109-0.817-1.868-0.817s-1.381,0.272-1.868,0.817C142.491,146.987,142.248,147.688,142.248,148.544z"/>
	<path fill="#231F20" d="M155.457,147.94v5.837h-2.919v-10.467h2.919v1.167c0.882-0.895,1.874-1.342,2.977-1.342
		c1.102,0,2.026,0.389,2.772,1.167c0.745,0.778,1.118,1.816,1.118,3.113v6.361h-2.918v-5.914c0-1.608-0.591-2.412-1.771-2.412
		c-0.584,0-1.093,0.211-1.527,0.632C155.674,146.505,155.457,147.124,155.457,147.94z"/>
	<path fill="#231F20" d="M167.889,147.94v5.837h-2.919v-10.467h2.919v1.167c0.882-0.895,1.874-1.342,2.977-1.342
		c1.102,0,2.026,0.389,2.772,1.167c0.745,0.778,1.118,1.816,1.118,3.113v6.361h-2.918v-5.914c0-1.608-0.591-2.412-1.771-2.412
		c-0.584,0-1.093,0.211-1.527,0.632C168.105,146.505,167.889,147.124,167.889,147.94z"/>
	<path fill="#231F20" d="M186.468,152.26c-1.181,1.115-2.565,1.673-4.153,1.673c-1.589,0-2.902-0.489-3.939-1.469
		c-1.038-0.979-1.557-2.292-1.557-3.939c0-1.646,0.528-2.957,1.585-3.93c1.058-0.973,2.306-1.459,3.745-1.459
		c1.44,0,2.662,0.435,3.668,1.303c1.005,0.87,1.508,2.062,1.508,3.58v1.557h-7.627c0.091,0.57,0.39,1.038,0.896,1.4
		c0.506,0.363,1.076,0.545,1.712,0.545c1.024,0,1.867-0.344,2.529-1.031L186.468,152.26z M183.666,146.054
		c-0.402-0.337-0.892-0.506-1.469-0.506s-1.105,0.175-1.585,0.525c-0.48,0.351-0.759,0.824-0.837,1.42h4.591
		C184.302,146.871,184.068,146.392,183.666,146.054z"/>
	<path fill="#231F20" d="M194.444,151.346c0.973,0,1.849-0.486,2.627-1.459l1.731,1.945c-1.35,1.4-2.809,2.101-4.378,2.101
		s-2.896-0.496-3.979-1.488s-1.624-2.289-1.624-3.891s0.548-2.905,1.644-3.91c1.096-1.005,2.396-1.508,3.901-1.508
		c0.752,0,1.514,0.155,2.285,0.467c0.771,0.311,1.45,0.772,2.033,1.381l-1.518,1.984c-0.337-0.401-0.749-0.713-1.235-0.934
		s-0.97-0.331-1.449-0.331c-0.766,0-1.424,0.25-1.975,0.749c-0.552,0.5-0.827,1.194-0.827,2.082c0,0.889,0.275,1.579,0.827,2.072
		C193.06,151.1,193.705,151.346,194.444,151.346z"/>
	<path fill="#231F20" d="M204.229,145.412v4.688c0,0.402,0.104,0.717,0.312,0.943c0.207,0.228,0.454,0.341,0.739,0.341
		c0.545,0,1.005-0.247,1.382-0.739l1.089,2.042c-0.908,0.83-1.864,1.245-2.869,1.245c-1.006,0-1.855-0.33-2.549-0.992
		c-0.694-0.661-1.041-1.562-1.041-2.704v-4.824h-1.226v-2.102h1.226v-3.132h2.938v3.132h2.529v2.102H204.229z"/>
	<path fill="#231F20" d="M217.925,145.412v4.688c0,0.402,0.104,0.717,0.312,0.943c0.207,0.228,0.454,0.341,0.739,0.341
		c0.545,0,1.005-0.247,1.382-0.739l1.089,2.042c-0.908,0.83-1.864,1.245-2.869,1.245c-1.006,0-1.855-0.33-2.549-0.992
		c-0.694-0.661-1.041-1.562-1.041-2.704v-4.824h-1.226v-2.102h1.226v-3.132h2.938v3.132h2.529v2.102H217.925z"/>
	<path fill="#231F20" d="M225.921,148.136v5.642h-2.919v-14.436h2.919v5.136c0.882-0.895,1.87-1.342,2.967-1.342
		c1.096,0,2.02,0.389,2.772,1.167c0.752,0.778,1.128,1.816,1.128,3.113v6.361h-2.918v-5.72c0-1.608-0.591-2.412-1.771-2.412
		c-0.584,0-1.093,0.211-1.527,0.632C226.138,146.699,225.921,147.318,225.921,148.136z"/>
	<path fill="#231F20" d="M244.5,152.26c-1.181,1.115-2.565,1.673-4.153,1.673c-1.589,0-2.902-0.489-3.939-1.469
		c-1.038-0.979-1.557-2.292-1.557-3.939c0-1.646,0.528-2.957,1.585-3.93c1.058-0.973,2.306-1.459,3.745-1.459
		c1.44,0,2.662,0.435,3.668,1.303c1.005,0.87,1.508,2.062,1.508,3.58v1.557h-7.627c0.091,0.57,0.39,1.038,0.896,1.4
		c0.506,0.363,1.076,0.545,1.712,0.545c1.024,0,1.867-0.344,2.529-1.031L244.5,152.26z M241.698,146.054
		c-0.402-0.337-0.892-0.506-1.469-0.506s-1.105,0.175-1.585,0.525c-0.48,0.351-0.759,0.824-0.837,1.42h4.591
		C242.334,146.871,242.101,146.392,241.698,146.054z"/>
	<path fill="#231F20" d="M256.786,153.933c-1.239,0-2.345-0.525-3.317-1.575c-0.973-1.051-1.459-2.354-1.459-3.911
		c0-1.556,0.473-2.83,1.42-3.822c0.946-0.992,2.056-1.488,3.327-1.488c1.271,0,2.309,0.447,3.112,1.342v-5.136h2.918v14.436h-2.918
		v-1.381C259.052,153.421,258.024,153.933,256.786,153.933z M254.947,148.563c0,0.843,0.253,1.534,0.759,2.072
		s1.096,0.807,1.771,0.807c0.674,0,1.248-0.269,1.722-0.807s0.71-1.232,0.71-2.082s-0.236-1.557-0.71-2.12
		c-0.474-0.564-1.054-0.847-1.741-0.847s-1.277,0.285-1.771,0.856C255.193,147.014,254.947,147.721,254.947,148.563z"/>
	<path fill="#231F20" d="M276.017,148.544c0,1.518-0.525,2.795-1.575,3.833c-1.051,1.037-2.371,1.556-3.959,1.556
		c-1.589,0-2.909-0.519-3.959-1.556c-1.051-1.038-1.576-2.315-1.576-3.833s0.525-2.798,1.576-3.842
		c1.05-1.044,2.37-1.566,3.959-1.566c1.588,0,2.908,0.522,3.959,1.566C275.491,145.746,276.017,147.026,276.017,148.544z
		 M267.885,148.544c0,0.856,0.243,1.554,0.729,2.092s1.109,0.807,1.868,0.807s1.381-0.269,1.867-0.807s0.729-1.235,0.729-2.092
		c0-0.855-0.243-1.557-0.729-2.101c-0.486-0.545-1.108-0.817-1.867-0.817s-1.382,0.272-1.868,0.817
		C268.128,146.987,267.885,147.688,267.885,148.544z"/>
	<path fill="#231F20" d="M281.463,145.412v4.688c0,0.402,0.104,0.717,0.312,0.943c0.207,0.228,0.454,0.341,0.739,0.341
		c0.545,0,1.005-0.247,1.382-0.739l1.089,2.042c-0.908,0.83-1.864,1.245-2.869,1.245c-1.006,0-1.855-0.33-2.549-0.992
		c-0.694-0.661-1.041-1.562-1.041-2.704v-4.824H277.3v-2.102h1.226v-3.132h2.938v3.132h2.529v2.102H281.463z"/>
	<path fill="#231F20" d="M294.421,150.519c0,1.031-0.38,1.858-1.139,2.48c-0.759,0.623-1.722,0.934-2.889,0.934
		c-0.778,0-1.589-0.14-2.432-0.418c-0.844-0.278-1.603-0.69-2.276-1.235l1.284-1.829c1.089,0.844,2.25,1.265,3.482,1.265
		c0.376,0,0.674-0.074,0.895-0.224c0.221-0.148,0.331-0.347,0.331-0.593c0-0.247-0.152-0.474-0.457-0.682
		c-0.306-0.207-0.746-0.401-1.323-0.583s-1.019-0.338-1.323-0.467c-0.305-0.13-0.651-0.318-1.041-0.564
		c-0.791-0.493-1.187-1.223-1.187-2.188c0-0.967,0.39-1.754,1.168-2.364c0.777-0.609,1.782-0.914,3.015-0.914
		s2.465,0.415,3.697,1.245l-1.09,1.945c-0.908-0.623-1.812-0.934-2.714-0.934s-1.353,0.246-1.353,0.739
		c0,0.272,0.143,0.486,0.429,0.642c0.285,0.156,0.758,0.338,1.42,0.545c0.661,0.208,1.131,0.366,1.41,0.477s0.613,0.282,1.002,0.516
		C294.058,148.752,294.421,149.487,294.421,150.519z"/>
</g>
</svg>
